<?xml version="1.0" encoding="UTF-8"?><svg id="Layer_1" xmlns="http://www.w3.org/2000/svg" viewBox="0 0 791.55 236.54"><defs><style>.cls-1{fill:#005496;}.cls-2{fill:#f37021;}</style></defs><g id="Text"><g id="gators"><path class="cls-1" d="M343.93,206.5c-1.07,5.1-3.35,9.85-6.86,14.25-3.51,4.4-8.58,8.13-15.22,11.19-6.64,3.06-15.53,4.59-26.68,4.59-4.76,0-9.61-.61-14.56-1.82-4.95-1.21-9.46-3.09-13.53-5.64-4.07-2.55-7.45-5.84-10.15-9.85-2.69-4.02-4.23-8.83-4.6-14.45h26.49c1.25,5.1,3.69,8.64,7.33,10.62,3.63,1.98,7.83,2.97,12.59,2.97,7.52,0,12.99-2.3,16.44-6.89,3.44-4.59,5.1-10.4,4.98-17.41v-13.01h-.38c-2.88,5.23-6.98,9.09-12.31,11.58-5.33,2.49-10.93,3.73-16.82,3.73-7.27,0-13.53-1.31-18.79-3.92-5.26-2.61-9.58-6.19-12.96-10.71-3.38-4.53-5.86-9.82-7.42-15.88-1.57-6.06-2.35-12.47-2.35-19.23,0-6.38.91-12.53,2.72-18.46,1.81-5.93,4.48-11.16,7.98-15.69,3.51-4.53,7.86-8.13,13.06-10.81,5.2-2.68,11.18-4.02,17.94-4.02,6.39,0,11.99,1.21,16.82,3.64,4.82,2.42,8.86,6.5,12.12,12.25h.38v-13.2h25.36v92.6c0,3.96-.53,8.48-1.6,13.58ZM307.38,173.59c2.88-1.53,5.26-3.57,7.14-6.12,1.88-2.55,3.29-5.45,4.23-8.71.94-3.25,1.41-6.66,1.41-10.24,0-4.08-.38-7.94-1.13-11.58-.75-3.63-2-6.85-3.76-9.66-1.75-2.8-4.07-5.04-6.95-6.7-2.88-1.66-6.51-2.49-10.9-2.49-3.76,0-6.98.76-9.68,2.3-2.7,1.53-4.95,3.61-6.76,6.22-1.82,2.62-3.13,5.61-3.95,8.99-.82,3.38-1.22,6.92-1.22,10.62s.34,7.11,1.03,10.62c.69,3.51,1.88,6.67,3.57,9.47,1.69,2.81,3.91,5.1,6.67,6.89,2.75,1.79,6.2,2.68,10.33,2.68,3.76,0,7.08-.76,9.96-2.3Z"/><path class="cls-1" d="M361.31,130.74c.38-6.38,1.94-11.67,4.7-15.88,2.75-4.21,6.26-7.59,10.52-10.14,4.26-2.55,9.05-4.37,14.37-5.45,5.32-1.08,10.68-1.63,16.06-1.63,4.88,0,9.83.35,14.84,1.05,5.01.7,9.58,2.07,13.71,4.11,4.13,2.04,7.52,4.88,10.15,8.51,2.63,3.63,3.95,8.45,3.95,14.45v51.47c0,4.47.25,8.74.75,12.82.5,4.08,1.38,7.14,2.63,9.18h-27.06c-.5-1.53-.91-3.09-1.22-4.69-.31-1.59-.53-3.22-.66-4.88-4.26,4.47-9.27,7.59-15.03,9.38-5.76,1.79-11.65,2.68-17.66,2.68-4.64,0-8.96-.57-12.96-1.72-4.01-1.15-7.52-2.93-10.52-5.36-3.01-2.42-5.36-5.48-7.05-9.18-1.69-3.7-2.54-8.1-2.54-13.2,0-5.61.97-10.24,2.91-13.87,1.94-3.64,4.44-6.54,7.51-8.71,3.07-2.17,6.58-3.79,10.52-4.88,3.95-1.08,7.92-1.94,11.93-2.58,4.01-.64,7.95-1.15,11.84-1.53,3.88-.38,7.33-.96,10.33-1.72,3.01-.76,5.38-1.88,7.14-3.35,1.75-1.46,2.57-3.6,2.44-6.41,0-2.93-.47-5.26-1.41-6.98s-2.19-3.06-3.76-4.02c-1.57-.96-3.38-1.59-5.45-1.91-2.07-.32-4.29-.48-6.67-.48-5.26,0-9.39,1.15-12.4,3.44-3.01,2.3-4.76,6.12-5.26,11.48h-26.68ZM422.93,150.83c-1.13,1.02-2.54,1.82-4.23,2.39-1.69.57-3.51,1.05-5.45,1.43-1.94.38-3.98.7-6.11.96-2.13.26-4.26.57-6.39.96-2.01.38-3.98.89-5.92,1.53-1.94.64-3.63,1.5-5.07,2.58-1.44,1.08-2.6,2.46-3.48,4.11-.88,1.66-1.32,3.76-1.32,6.31s.44,4.47,1.32,6.12c.88,1.66,2.07,2.97,3.57,3.92,1.5.96,3.26,1.63,5.26,2.01,2,.38,4.07.57,6.2.57,5.26,0,9.33-.89,12.21-2.68,2.88-1.78,5.01-3.92,6.39-6.41,1.38-2.49,2.22-5,2.54-7.56.31-2.55.47-4.59.47-6.12v-10.14Z"/><path class="cls-1" d="M519.13,100.32v18.18h-19.54v48.98c0,4.59.75,7.65,2.25,9.18,1.5,1.53,4.51,2.3,9.02,2.3,1.5,0,2.94-.06,4.32-.19,1.38-.12,2.69-.32,3.95-.57v21.05c-2.25.38-4.76.64-7.52.77-2.76.12-5.45.19-8.08.19-4.13,0-8.05-.29-11.74-.86-3.7-.57-6.95-1.69-9.77-3.35-2.82-1.66-5.04-4.02-6.67-7.08-1.63-3.06-2.44-7.08-2.44-12.05v-58.36h-16.16v-18.18h16.16v-29.66h26.68v29.66h19.54Z"/><path class="cls-1" d="M527.95,128.35c2.38-6.44,5.76-11.93,10.15-16.46,4.38-4.53,9.64-8.04,15.78-10.52,6.14-2.49,13.03-3.73,20.67-3.73s14.56,1.24,20.76,3.73c6.2,2.49,11.49,6,15.88,10.52,4.38,4.53,7.76,10.02,10.15,16.46,2.38,6.44,3.57,13.62,3.57,21.52s-1.19,15.05-3.57,21.43c-2.38,6.38-5.76,11.83-10.15,16.36-4.39,4.53-9.68,8.01-15.88,10.43-6.2,2.42-13.12,3.64-20.76,3.64s-14.53-1.21-20.67-3.64c-6.14-2.42-11.4-5.9-15.78-10.43-4.39-4.53-7.77-9.98-10.15-16.36-2.38-6.38-3.57-13.52-3.57-21.43s1.19-15.08,3.57-21.52ZM552.19,161.45c.75,3.76,2.03,7.15,3.85,10.14,1.81,3,4.23,5.39,7.23,7.17,3.01,1.79,6.76,2.68,11.27,2.68s8.3-.89,11.37-2.68c3.07-1.78,5.51-4.18,7.33-7.17,1.81-3,3.1-6.38,3.85-10.14.75-3.76,1.13-7.62,1.13-11.58s-.38-7.84-1.13-11.67c-.75-3.83-2.04-7.21-3.85-10.14-1.82-2.93-4.26-5.32-7.33-7.17-3.07-1.85-6.86-2.77-11.37-2.77s-8.27.93-11.27,2.77c-3.01,1.85-5.42,4.24-7.23,7.17-1.82,2.94-3.1,6.31-3.85,10.14-.75,3.83-1.13,7.72-1.13,11.67s.38,7.81,1.13,11.58Z"/><path class="cls-1" d="M663.04,100.32v18.37h.38c1.25-3.06,2.94-5.9,5.07-8.51,2.13-2.61,4.57-4.85,7.33-6.7,2.75-1.85,5.7-3.28,8.83-4.31,3.13-1.02,6.39-1.53,9.77-1.53,1.75,0,3.69.32,5.82.96v25.25c-1.25-.25-2.76-.48-4.51-.67-1.76-.19-3.45-.29-5.07-.29-4.88,0-9.02.83-12.4,2.49-3.38,1.66-6.11,3.92-8.17,6.79s-3.54,6.22-4.42,10.04c-.88,3.83-1.32,7.97-1.32,12.44v44.58h-26.68v-98.92h25.36Z"/><path class="cls-1" d="M728.71,174.65c1.19,2.1,2.72,3.83,4.6,5.17,1.88,1.34,4.04,2.33,6.48,2.97,2.44.64,4.98.96,7.61.96,1.88,0,3.85-.22,5.92-.67,2.07-.45,3.95-1.15,5.64-2.11,1.69-.96,3.1-2.23,4.23-3.83,1.13-1.59,1.69-3.6,1.69-6.03,0-4.08-2.66-7.14-7.99-9.18-5.33-2.04-12.75-4.08-22.26-6.12-3.88-.89-7.67-1.94-11.37-3.16-3.7-1.21-6.98-2.8-9.86-4.78-2.88-1.98-5.2-4.46-6.95-7.46-1.76-3-2.63-6.66-2.63-11,0-6.38,1.22-11.61,3.66-15.69,2.44-4.08,5.67-7.3,9.68-9.66,4.01-2.36,8.52-4.02,13.53-4.97,5.01-.96,10.15-1.43,15.41-1.43s10.36.51,15.31,1.53c4.95,1.02,9.36,2.75,13.25,5.17,3.88,2.42,7.11,5.64,9.68,9.66,2.57,4.02,4.1,9.09,4.6,15.21h-25.36c-.38-5.23-2.32-8.77-5.82-10.62-3.51-1.85-7.64-2.77-12.4-2.77-1.5,0-3.13.1-4.88.29-1.76.19-3.35.61-4.79,1.24-1.44.64-2.66,1.56-3.66,2.77-1,1.21-1.5,2.84-1.5,4.88,0,2.42.88,4.4,2.63,5.93,1.75,1.53,4.04,2.77,6.86,3.73s6.04,1.82,9.68,2.58c3.63.77,7.33,1.6,11.08,2.49,3.88.89,7.67,1.98,11.37,3.25,3.69,1.28,6.98,2.97,9.86,5.07,2.88,2.1,5.2,4.72,6.95,7.84,1.75,3.13,2.63,6.98,2.63,11.58,0,6.5-1.29,11.96-3.85,16.36-2.57,4.4-5.92,7.94-10.05,10.62-4.13,2.68-8.86,4.56-14.19,5.64-5.33,1.08-10.74,1.63-16.25,1.63s-11.15-.57-16.53-1.72c-5.39-1.15-10.18-3.06-14.37-5.74-4.2-2.68-7.64-6.22-10.33-10.62-2.7-4.4-4.17-9.92-4.42-16.55h25.37c0,2.94.59,5.45,1.78,7.56Z"/></g><g id="solar"><path class="cls-2" d="M290.78,34.94c-.86-1.68-2.01-3.06-3.45-4.15-1.44-1.09-3.1-1.89-4.97-2.4-1.87-.51-3.86-.76-5.97-.76-1.64,0-3.3.18-4.97.53-1.68.35-3.22.94-4.62,1.76s-2.54,1.89-3.39,3.22c-.86,1.33-1.29,2.97-1.29,4.92,0,1.64.41,3.02,1.23,4.15.82,1.13,1.85,2.09,3.1,2.87,1.25.78,2.61,1.42,4.1,1.93,1.48.51,2.85.92,4.1,1.23l9.83,2.22c2.11.31,4.19.88,6.26,1.7,2.07.82,3.9,1.89,5.5,3.22,1.6,1.33,2.91,2.97,3.92,4.92,1.01,1.95,1.52,4.25,1.52,6.91,0,3.28-.74,6.07-2.22,8.37-1.48,2.3-3.38,4.17-5.68,5.62-2.3,1.44-4.9,2.48-7.78,3.1-2.89.62-5.73.94-8.54.94-7.1,0-12.86-1.68-17.26-5.03-4.41-3.35-6.92-8.74-7.55-16.15h7.37c.31,4.99,2.12,8.76,5.44,11.29,3.32,2.54,7.43,3.8,12.35,3.8,1.79,0,3.65-.19,5.56-.58,1.91-.39,3.69-1.05,5.33-1.99,1.64-.94,2.98-2.12,4.04-3.57,1.05-1.44,1.58-3.22,1.58-5.33,0-1.79-.37-3.3-1.11-4.51-.74-1.21-1.74-2.22-2.98-3.04s-2.67-1.5-4.27-2.05c-1.6-.55-3.22-1.01-4.86-1.4l-9.48-2.11c-2.42-.62-4.64-1.35-6.67-2.17-2.03-.82-3.8-1.83-5.33-3.04-1.52-1.21-2.71-2.69-3.57-4.45-.86-1.76-1.29-3.92-1.29-6.5,0-3.04.68-5.66,2.05-7.84,1.36-2.18,3.14-3.94,5.32-5.27,2.18-1.33,4.62-2.3,7.31-2.93,2.69-.62,5.36-.94,8.02-.94,3.04,0,5.87.39,8.48,1.17,2.61.78,4.92,1.99,6.91,3.63,1.99,1.64,3.57,3.67,4.74,6.09,1.17,2.42,1.83,5.27,1.99,8.54h-7.37c-.08-2.26-.55-4.23-1.4-5.91Z"/><path class="cls-2" d="M348.65,23.99c3.55,1.72,6.53,4.02,8.95,6.91,2.42,2.89,4.25,6.26,5.5,10.12,1.25,3.86,1.87,7.98,1.87,12.35s-.63,8.49-1.87,12.35c-1.25,3.86-3.08,7.24-5.5,10.12-2.42,2.89-5.4,5.17-8.95,6.85-3.55,1.68-7.63,2.52-12.23,2.52s-8.68-.84-12.23-2.52c-3.55-1.68-6.54-3.96-8.95-6.85-2.42-2.89-4.25-6.26-5.5-10.12-1.25-3.86-1.87-7.98-1.87-12.35s.62-8.49,1.87-12.35c1.25-3.86,3.08-7.24,5.5-10.12,2.42-2.89,5.4-5.19,8.95-6.91,3.55-1.72,7.62-2.57,12.23-2.57s8.68.86,12.23,2.57ZM327.18,29.85c-2.65,1.48-4.86,3.43-6.61,5.85-1.76,2.42-3.08,5.17-3.98,8.25-.9,3.08-1.35,6.22-1.35,9.42s.45,6.34,1.35,9.42c.9,3.08,2.22,5.83,3.98,8.25,1.75,2.42,3.96,4.37,6.61,5.85,2.65,1.48,5.73,2.22,9.25,2.22s6.59-.74,9.25-2.22c2.65-1.48,4.86-3.43,6.61-5.85,1.75-2.42,3.08-5.17,3.98-8.25.9-3.08,1.35-6.22,1.35-9.42s-.45-6.34-1.35-9.42c-.9-3.08-2.22-5.83-3.98-8.25-1.76-2.42-3.96-4.37-6.61-5.85-2.65-1.48-5.74-2.22-9.25-2.22s-6.59.74-9.25,2.22Z"/><path class="cls-2" d="M382.07,0v83.57h-7.37V0h7.37Z"/><path class="cls-2" d="M396.34,32.54c1.25-2.57,2.94-4.68,5.09-6.32,2.14-1.64,4.66-2.85,7.55-3.63,2.89-.78,6.09-1.17,9.6-1.17,2.65,0,5.31.25,7.96.76,2.65.51,5.03,1.46,7.14,2.87,2.11,1.4,3.82,3.38,5.15,5.91,1.33,2.54,1.99,5.83,1.99,9.89v32.07c0,2.97,1.44,4.45,4.33,4.45.86,0,1.64-.16,2.34-.47v6.2c-.86.16-1.62.27-2.28.35-.66.08-1.5.12-2.52.12-1.87,0-3.38-.25-4.51-.76-1.13-.51-2.01-1.23-2.63-2.17-.63-.94-1.04-2.05-1.23-3.34-.2-1.29-.29-2.71-.29-4.27h-.23c-1.33,1.95-2.67,3.69-4.04,5.21-1.37,1.52-2.89,2.79-4.56,3.8-1.68,1.02-3.59,1.79-5.74,2.34-2.15.54-4.7.82-7.67.82-2.81,0-5.44-.33-7.9-1-2.46-.66-4.6-1.72-6.44-3.16-1.83-1.44-3.28-3.28-4.33-5.5-1.05-2.22-1.58-4.86-1.58-7.9,0-4.21.94-7.51,2.81-9.89,1.87-2.38,4.35-4.19,7.43-5.44,3.08-1.25,6.55-2.12,10.42-2.63,3.86-.51,7.78-.99,11.76-1.46,1.56-.16,2.93-.35,4.1-.59,1.17-.23,2.14-.64,2.93-1.23.78-.58,1.38-1.38,1.81-2.4.43-1.01.64-2.34.64-3.98,0-2.5-.41-4.54-1.23-6.14-.82-1.6-1.95-2.87-3.39-3.8-1.45-.94-3.12-1.58-5.03-1.93-1.91-.35-3.96-.53-6.14-.53-4.68,0-8.5,1.11-11.47,3.34-2.97,2.22-4.53,5.79-4.68,10.71h-7.37c.23-3.51.98-6.55,2.22-9.13ZM433.21,50.56c-.47.86-1.37,1.48-2.69,1.87-1.33.39-2.5.66-3.51.82-3.12.55-6.34,1.04-9.66,1.46-3.32.43-6.34,1.07-9.07,1.93-2.73.86-4.97,2.09-6.73,3.69-1.75,1.6-2.63,3.88-2.63,6.85,0,1.87.37,3.53,1.11,4.97.74,1.44,1.74,2.69,2.98,3.75,1.25,1.05,2.69,1.85,4.33,2.4,1.64.55,3.32.82,5.03.82,2.81,0,5.5-.43,8.08-1.29,2.58-.86,4.82-2.11,6.73-3.75,1.91-1.64,3.43-3.63,4.56-5.97,1.13-2.34,1.7-4.99,1.7-7.96v-9.6h-.23Z"/><path class="cls-2" d="M460.95,23.17v14.16h.23c1.87-4.92,4.78-8.7,8.72-11.35,3.94-2.65,8.64-3.86,14.1-3.63v7.37c-3.36-.16-6.4.29-9.13,1.35-2.73,1.05-5.09,2.56-7.08,4.51-1.99,1.95-3.53,4.27-4.62,6.96-1.09,2.69-1.64,5.64-1.64,8.84v32.19h-7.37V23.17h6.79Z"/></g></g><g id="Logo"><path class="cls-2" d="M146,82.26h-58l-8,8v58c1.56,1.56,1.78,1.78,3,3l66-66c-1.22-1.22-1.44-1.44-3-3Z"/><path class="cls-1" d="M85,153.26c1.22,1.22,1.44,1.44,3,3h58l8-8v-58c-1.56-1.56-1.78-1.78-3-3l-66,66Z"/><path class="cls-2" d="M66,76.26H8L0,68.26V10.26L8,2.26h58l8,8v58l-8,8Z"/><path class="cls-2" d="M146,76.26h-58l-8-8V10.26l8-8h58l8,8v58l-8,8Z"/><path class="cls-2" d="M66,156.26H8l-8-8v-58l8-8h58l8,8v58l-8,8Z"/><path class="cls-1" d="M66,236.26H8l-8-8v-58l8-8h58l8,8v58l-8,8Z"/><path class="cls-1" d="M146,236.26h-58l-8-8v-58l8-8h58l8,8v58l-8,8Z"/><path class="cls-1" d="M226,236.26h-58l-8-8v-58l8-8h58l8,8v58l-8,8Z"/><path class="cls-1" d="M226,76.26h-58l-8-8V10.26l8-8h58l8,8v58l-8,8Z"/><path class="cls-1" d="M226,156.26h-58l-8-8v-58l8-8h58l8,8v58l-8,8Z"/></g></svg>